# Blender v2.76 (sub 0) OBJ File: 'bullet.blend'
# www.blender.org
mtllib bullet.mtl
o Cube
v -0.072949 -0.072949 0.072949
v -0.072949 -0.072949 -0.072949
v 0.072949 -0.072949 -0.072949
v 0.072949 -0.072949 0.072949
v -0.072949 0.072949 0.072949
v -0.072949 0.072949 -0.072949
v 0.072949 0.072949 -0.072949
v 0.072949 0.072949 0.072949
v -0.072949 -0.059461 0.059461
v -0.072949 -0.059461 -0.059461
v -0.072949 0.059461 0.059461
v -0.072949 0.059461 -0.059462
v -0.104265 -0.059461 0.059461
v -0.104265 -0.059461 -0.059462
v -0.104265 0.059461 0.059461
v -0.104265 0.059461 -0.059462
v -0.104265 -0.045740 0.045740
v -0.104265 -0.045740 -0.045740
v -0.104265 0.045740 0.045740
v -0.104265 0.045740 -0.045740
v -0.132356 -0.045740 0.045740
v -0.132356 -0.045740 -0.045740
v -0.132356 0.045740 0.045740
v -0.132356 0.045740 -0.045740
v 0.073162 -0.067735 -0.067735
v 0.073162 -0.067735 0.067735
v 0.073162 0.067735 -0.067735
v 0.073162 0.067735 0.067735
v 0.078703 -0.067735 -0.067735
v 0.078703 -0.067735 0.067735
v 0.078703 0.067735 -0.067735
v 0.078703 0.067735 0.067735
v 0.078916 -0.072949 -0.072949
v 0.078916 -0.072949 0.072949
v 0.078916 0.072949 -0.072949
v 0.078916 0.072949 0.072949
v 0.086337 -0.072949 -0.072949
v 0.086337 -0.072949 0.072949
v 0.086337 0.072949 -0.072949
v 0.086337 0.072949 0.072949
vn 0.000000 -1.000000 -0.000000
vn 0.000000 1.000000 -0.000000
vn -1.000000 0.000000 0.000000
vn 0.000000 -0.000000 -1.000000
vn 0.999200 -0.000000 -0.040900
vn -0.000000 0.000000 1.000000
vn 0.999200 0.040900 0.000000
vn 0.999200 -0.000000 0.040900
vn 0.999200 -0.040900 0.000000
vn -0.999200 0.000000 0.040900
vn -0.999200 -0.040900 -0.000000
vn -0.999200 0.040900 -0.000000
vn -0.999200 0.000000 -0.040900
vn 1.000000 -0.000000 0.000000
usemtl Material
s off
f 1//1 2//1 3//1 4//1
f 5//2 8//2 7//2 6//2
f 2//3 1//3 9//3 10//3
f 2//4 6//4 7//4 3//4
f 3//5 7//5 27//5 25//5
f 5//6 1//6 4//6 8//6
f 12//4 10//4 14//4 16//4
f 5//3 6//3 12//3 11//3
f 6//3 2//3 10//3 12//3
f 1//3 5//3 11//3 9//3
f 16//3 14//3 18//3 20//3
f 10//1 9//1 13//1 14//1
f 11//2 12//2 16//2 15//2
f 9//6 11//6 15//6 13//6
f 19//2 20//2 24//2 23//2
f 14//3 13//3 17//3 18//3
f 15//3 16//3 20//3 19//3
f 13//3 15//3 19//3 17//3
f 21//3 23//3 24//3 22//3
f 17//6 19//6 23//6 21//6
f 20//4 18//4 22//4 24//4
f 18//1 17//1 21//1 22//1
f 28//6 26//6 30//6 32//6
f 7//7 8//7 28//7 27//7
f 8//8 4//8 26//8 28//8
f 4//9 3//9 25//9 26//9
f 32//10 30//10 34//10 36//10
f 26//1 25//1 29//1 30//1
f 27//2 28//2 32//2 31//2
f 25//4 27//4 31//4 29//4
f 35//2 36//2 40//2 39//2
f 30//11 29//11 33//11 34//11
f 31//12 32//12 36//12 35//12
f 29//13 31//13 35//13 33//13
f 37//14 39//14 40//14 38//14
f 33//4 35//4 39//4 37//4
f 36//6 34//6 38//6 40//6
f 34//1 33//1 37//1 38//1
