# Blender v2.76 (sub 0) OBJ File: 'gun.blend'
# www.blender.org
mtllib gun.mtl
o Cube.001_Cube.002
v -0.721863 -0.070071 -0.009263
v -0.721863 0.076224 -0.009263
v -0.721863 -0.070071 -0.155558
v -0.721863 0.076224 -0.155558
v -0.559475 -0.070071 -0.009263
v -0.559475 -0.070071 -0.155558
v -0.559475 0.076224 -0.155558
v -0.721863 -0.055462 -0.023872
v -0.721863 0.061614 -0.023872
v -0.721863 0.061614 -0.140949
v -0.721863 -0.055462 -0.140949
v -0.761516 -0.055462 -0.023872
v -0.761516 0.061614 -0.023872
v -0.761516 0.061614 -0.140949
v -0.761516 -0.055462 -0.140949
v -0.761516 -0.040791 -0.038544
v -0.761516 0.046943 -0.038544
v -0.761516 0.046943 -0.126278
v -0.761516 -0.040791 -0.126278
v -0.692327 -0.040791 -0.038544
v -0.692327 0.046943 -0.038544
v -0.692327 0.046943 -0.126278
v -0.692327 -0.040791 -0.126278
v -0.721863 -0.070071 0.137501
v -0.721863 0.076224 0.137501
v -0.721863 -0.070071 -0.008794
v -0.721863 0.076224 -0.008794
v -0.559475 -0.070071 0.137501
v -0.559475 0.076224 0.137501
v -0.559475 -0.070071 -0.008794
v -0.559475 0.076224 -0.008794
v -0.721863 -0.055462 0.122892
v -0.721863 0.061614 0.122892
v -0.721863 0.061614 0.005815
v -0.721863 -0.055462 0.005815
v -0.761516 -0.055462 0.122892
v -0.761516 0.061614 0.122892
v -0.761516 0.061614 0.005815
v -0.761516 -0.055462 0.005815
v -0.761516 -0.040791 0.108220
v -0.761516 0.046943 0.108220
v -0.761516 0.046943 0.020486
v -0.761516 -0.040791 0.020486
v -0.692327 -0.040791 0.108220
v -0.692327 0.046943 0.108220
v -0.692327 0.046943 0.020486
v -0.692327 -0.040791 0.020486
v -0.700814 0.083604 0.004875
v -0.700814 0.124398 0.004875
v -0.700814 0.083604 -0.023410
v -0.700814 0.124398 -0.023410
v -0.672530 0.083604 0.004875
v -0.672530 0.124398 0.004875
v -0.672530 0.083604 -0.023410
v -0.672530 0.124398 -0.023410
v -0.559475 0.087498 -0.178143
v -0.559475 -0.081346 -0.178143
v -0.559475 0.087498 -0.016998
v -0.559475 -0.081346 -0.009300
v -0.559475 0.087498 -0.000205
v -0.559475 -0.081346 -0.008758
v -0.559475 0.087498 0.160086
v -0.559475 -0.081346 0.160086
v 0.278230 0.076224 -0.155558
v 0.278230 -0.070071 -0.155558
v 0.278230 0.076224 -0.009263
v 0.278230 -0.070071 -0.009263
v 0.278230 0.076224 0.137501
v 0.278230 -0.070071 0.137501
v 0.278230 -0.070071 -0.008794
v 0.278230 0.087498 -0.178143
v 0.278230 -0.081346 -0.178143
v 0.278230 0.087498 -0.016998
v 0.278230 -0.081346 -0.009300
v 0.278230 0.087498 -0.000205
v 0.278230 0.087498 0.160086
v 0.278230 -0.081346 0.160086
v 0.278230 -0.081346 -0.008758
vt 0.834964 0.001538
vt 0.834964 1.001538
vt 0.934824 0.901678
vt 0.934824 0.101398
vt 0.997915 0.001538
vt 1.110242 0.001538
vt 1.110242 -0.998462
vt 0.997915 -0.998462
vt 0.000000 0.000000
vt -0.164789 0.078605
vt 0.110242 0.835211
vt 0.831509 0.078605
vt 0.689703 1.831509
vt 0.997915 0.834964
vt 0.997915 1.834964
vt 1.110242 1.834964
vt 1.110242 0.834964
vt 0.997915 0.901678
vt 0.997915 0.101398
vt 0.970485 0.101398
vt 0.970485 0.901678
vt -0.165036 0.001538
vt -0.065176 0.101398
vt 0.735104 0.101398
vt 1.834964 0.001538
vt 1.735104 -0.098322
vt 0.934824 -0.098322
vt 0.834964 -0.998462
vt 0.735104 -0.898602
vt 0.735104 -0.098322
vt 0.735104 0.901678
vt 0.634819 0.201683
vt 0.634819 0.801393
vt 0.997915 0.735104
vt 0.997915 -0.065176
vt 0.970485 -0.065176
vt 0.970485 0.735104
vt 0.997915 0.934824
vt 0.997915 1.735104
vt 0.970485 1.735104
vt 0.970485 0.934824
vt 0.970485 0.634819
vt 0.970485 0.035109
vt 1.018345 0.035109
vt 1.018345 0.634819
vt 1.035109 0.801393
vt 1.035109 0.201683
vt 0.035109 0.201683
vt 1.735104 0.901678
vt 1.634819 0.801393
vt 0.035109 0.801393
vt 0.970485 0.801393
vt 0.970485 0.201683
vt 1.018345 0.201683
vt 1.018345 0.801393
vt 0.831756 0.001538
vt 0.831756 1.001538
vt 0.931617 0.901678
vt 0.931617 0.101398
vt 0.110242 0.001538
vt -0.002085 0.001538
vt -0.002085 -0.998462
vt 0.110242 -0.998462
vt 0.997915 0.831756
vt 0.997915 1.831756
vt 1.110242 1.831756
vt 1.110242 0.831756
vt -0.168244 0.001538
vt -0.068383 0.101398
vt 0.731896 0.101398
vt 1.831756 0.001538
vt 1.731896 -0.098322
vt 0.931617 -0.098322
vt 0.831756 -0.998462
vt 0.731896 -0.898602
vt 0.731896 -0.098322
vt 0.731896 0.901678
vt 0.631611 0.201683
vt 0.631611 0.801393
vt 0.997915 0.731896
vt 0.997915 -0.068383
vt 0.970485 -0.068383
vt 0.970485 0.731896
vt 0.997915 0.931617
vt 0.997915 1.731896
vt 0.970485 1.731896
vt 0.970485 0.931617
vt 0.970485 0.631611
vt 0.970485 0.031902
vt 1.018345 0.031902
vt 1.018345 0.631611
vt 1.031902 0.801393
vt 1.031902 0.201683
vt 0.031902 0.201683
vt 1.731896 0.901678
vt 1.631611 0.801393
vt 0.031902 0.801393
vt 0.687533 0.295595
vt 0.982449 0.295595
vt 0.982449 0.001306
vt 0.687533 0.001306
vt 0.007335 0.295595
vt 0.037179 0.295595
vt 0.037179 0.001306
vt 0.007335 0.001306
vt 0.007335 0.687533
vt 0.007335 0.982449
vt 0.037179 0.982449
vt 0.037179 0.687533
vt 0.677376 0.078605
vt 0.677376 -1.075529
vt 0.677376 -0.075529
vt 1.831509 -0.075529
vt 0.110242 0.924471
vt 0.689703 0.924471
vt 0.689703 2.078605
vt 0.110242 2.078605
vt 0.110242 0.834964
vt 0.689703 0.834964
vt 0.689703 1.834964
vt 0.110242 1.834964
vt 0.110242 0.677376
vt 0.689703 0.677376
vt 0.110242 1.831509
vt 0.110242 0.831756
vt 0.689703 0.831756
vt 0.689703 1.831756
vt 0.110242 1.831756
vt 0.689703 0.001538
vt 0.689703 -0.075529
vt 0.110242 -0.075529
vt 0.835211 -0.075529
vt 1.989345 -0.075529
vt 0.989345 0.078605
vt 0.989345 -0.075529
vt 0.989345 1.078605
vt 0.110242 0.831509
vt 0.689703 0.831509
vt 0.689703 -0.322624
vt 0.110242 -0.322624
vt 0.110242 0.078605
vt 0.689703 0.078605
vt 0.689703 -1.075529
vt 0.110242 -1.075529
vt 0.689703 0.835211
vt 0.689703 1.989345
vt 0.110242 1.989345
vt 0.689703 1.001538
vt 0.110242 1.001538
vt 0.110242 0.989345
vt 0.689703 0.989345
vt 0.689703 -0.164789
vt 0.110242 -0.164789
vt -0.002085 0.831756
vt 0.689703 -0.998462
vt -0.322624 0.078605
vt 0.989345 -1.075529
vn -1.000000 0.000000 0.000000
vn 0.000000 0.000000 -1.000000
vn 0.000200 0.577200 0.816600
vn -0.000200 0.616300 -0.787500
vn 0.000000 -1.000000 0.000000
vn 0.000000 0.000000 1.000000
vn 0.000000 1.000000 0.000000
vn 1.000000 0.000000 0.000000
vn 0.000000 -0.003200 -1.000000
vn 0.000000 -0.003200 1.000000
usemtl gun_material
s off
f 1/1/1 2/2/1 9/3/1 8/4/1
f 4/5/2 7/6/2 6/7/2 3/8/2
f 31/9/3 66/9/3 73/10/3 58/11/3
f 66/9/4 31/12/4 60/13/4 75/9/4
f 1/14/5 3/15/5 6/16/5 5/17/5
f 10/18/2 11/19/2 15/20/2 14/21/2
f 3/1/1 1/22/1 8/23/1 11/24/1
f 2/1/1 4/25/1 10/26/1 9/27/1
f 4/1/1 3/28/1 11/29/1 10/30/1
f 14/31/1 15/24/1 19/32/1 18/33/1
f 8/19/6 9/18/6 13/21/6 12/20/6
f 11/34/5 8/35/5 12/36/5 15/37/5
f 9/38/7 10/39/7 14/40/7 13/41/7
f 19/42/7 16/43/7 20/44/7 23/45/7
f 12/4/1 13/3/1 17/46/1 16/47/1
f 15/24/1 12/23/1 16/48/1 19/32/1
f 13/3/1 14/49/1 18/50/1 17/46/1
f 21/51/1 22/33/1 23/32/1 20/48/1
f 17/43/5 18/42/5 22/45/5 21/44/5
f 18/52/6 19/53/6 23/54/6 22/55/6
f 16/53/2 17/52/2 21/55/2 20/54/2
f 24/56/1 25/57/1 33/58/1 32/59/1
f 29/60/6 25/61/6 24/62/6 28/63/6
f 24/64/5 26/65/5 30/66/5 28/67/5
f 34/18/2 35/19/2 39/20/2 38/21/2
f 26/56/1 24/68/1 32/69/1 35/70/1
f 25/56/1 27/71/1 34/72/1 33/73/1
f 27/56/1 26/74/1 35/75/1 34/76/1
f 38/77/1 39/70/1 43/78/1 42/79/1
f 32/19/6 33/18/6 37/21/6 36/20/6
f 35/80/5 32/81/5 36/82/5 39/83/5
f 33/84/7 34/85/7 38/86/7 37/87/7
f 43/88/7 40/89/7 44/90/7 47/91/7
f 36/59/1 37/58/1 41/92/1 40/93/1
f 39/70/1 36/69/1 40/94/1 43/78/1
f 37/58/1 38/95/1 42/96/1 41/92/1
f 45/97/1 46/79/1 47/78/1 44/94/1
f 41/89/5 42/88/5 46/91/5 45/90/5
f 42/52/6 43/53/6 47/54/6 46/55/6
f 40/53/2 41/52/2 45/55/2 44/54/2
f 49/98/1 51/99/1 50/100/1 48/101/1
f 51/102/2 55/103/2 54/104/2 50/105/2
f 55/99/8 53/98/8 52/101/8 54/100/8
f 53/103/6 49/102/6 48/105/6 52/104/6
f 48/106/5 50/107/5 54/108/5 52/109/5
f 53/109/7 55/108/7 51/107/7 49/106/7
f 68/56/8 76/110/8 77/111/8 69/74/8
f 69/56/8 77/112/8 78/113/8 70/71/8
f 63/114/6 77/115/6 76/116/6 62/117/6
f 5/118/7 67/119/7 65/120/7 6/121/7
f 62/122/7 76/123/7 75/13/7 60/124/7
f 28/125/7 69/126/7 70/127/7 30/128/7
f 30/60/9 70/129/9 78/130/9 61/131/9
f 67/1/8 74/132/8 72/133/8 65/25/8
f 64/1/8 71/134/8 73/10/8 66/22/8
f 65/1/8 72/135/8 71/136/8 64/2/8
f 61/137/5 78/138/5 77/139/5 63/140/5
f 56/141/2 71/142/2 72/143/2 57/144/2
f 58/11/7 73/145/7 71/146/7 56/147/7
f 6/60/6 65/129/6 64/148/6 7/149/6
f 59/114/10 74/115/10 67/148/10 5/149/10
f 57/150/5 72/151/5 74/152/5 59/153/5
f 29/154/7 7/9/7 4/5/7 25/9/7
f 56/1/1 7/9/1 31/9/1 58/147/1
f 29/60/2 68/129/2 69/155/2 28/63/2
f 28/56/1 30/71/1 61/113/1 63/112/1
f 29/56/1 28/74/1 63/111/1 62/110/1
f 31/56/1 29/68/1 62/156/1 60/12/1
f 56/134/1 57/157/1 6/28/1 7/1/1
f 5/1/1 6/25/1 57/133/1 59/132/1
f 76/56/8 68/9/8 66/9/8 75/123/8
l 31 30
